<svg data-v-fde0c5aa="" xmlns="http://www.w3.org/2000/svg" viewBox="0 0 300 300" class="iconLeft"><!----><defs data-v-fde0c5aa=""><!----></defs><rect data-v-fde0c5aa="" fill="transparent" x="0" y="0" width="300px" height="300px" class="logo-background-square"></rect><defs data-v-fde0c5aa=""><!----></defs><g data-v-fde0c5aa="" id="7d6a24e6-eae2-4f52-9fb8-8bda164a1979" fill="#000000" transform="matrix(2.054071615838669,0,0,2.054071615838669,77.66007702574812,133.3620196178695)"><path d="M2.39 13.02L2.39 13.02L1.20 13.02Q0.91 13.02 0.91 12.73L0.91 12.73L0.91 4.31Q0.91 4.02 1.20 4.02L1.20 4.02L5.67 4.02Q5.95 4.02 5.95 4.31L5.95 4.31L5.95 5.26Q5.95 5.56 5.67 5.56L5.67 5.56L2.86 5.56Q2.69 5.56 2.69 5.71L2.69 5.71L2.69 7.88Q2.69 8.05 2.86 8.05L2.86 8.05L5.25 8.05Q5.54 8.05 5.54 8.34L5.54 8.34L5.54 9.28Q5.54 9.59 5.25 9.59L5.25 9.59L2.86 9.59Q2.69 9.59 2.69 9.74L2.69 9.74L2.69 12.73Q2.69 13.02 2.39 13.02ZM8.55 13.02L8.55 13.02L7.36 13.02Q7.07 13.02 7.07 12.73L7.07 12.73L7.07 6.17Q7.07 5.88 7.36 5.88L7.36 5.88L8.55 5.88Q8.85 5.88 8.85 6.17L8.85 6.17L8.85 6.65L8.90 6.65Q9.06 6.27 9.45 6.08Q9.84 5.88 10.28 5.88L10.28 5.88L10.78 5.88Q11.06 5.88 11.06 6.17L11.06 6.17L11.06 7.14Q11.06 7.31 11.00 7.37Q10.93 7.43 10.78 7.42L10.78 7.42L9.81 7.42Q8.85 7.42 8.85 8.51L8.85 8.51L8.85 12.73Q8.85 13.02 8.55 13.02ZM17.22 13.02L17.22 13.02L14.13 13.02Q13.02 13.02 12.42 12.43Q11.82 11.84 11.82 10.74L11.82 10.74L11.82 8.16Q11.82 7.06 12.42 6.47Q13.02 5.88 14.13 5.88L14.13 5.88L15.23 5.88Q16.34 5.88 16.94 6.47Q17.54 7.06 17.54 8.16L17.54 8.16L17.54 9.94Q17.54 10.23 17.25 10.23L17.25 10.23L13.73 10.23Q13.57 10.23 13.57 10.39L13.57 10.39L13.57 10.70Q13.57 11.13 13.75 11.32Q13.94 11.51 14.39 11.51L14.39 11.51L17.22 11.51Q17.51 11.51 17.51 11.82L17.51 11.82L17.51 12.74Q17.51 12.89 17.45 12.96Q17.39 13.02 17.22 13.02ZM13.73 9.04L13.73 9.04L15.64 9.04Q15.79 9.04 15.79 8.89L15.79 8.89L15.79 8.22Q15.79 7.77 15.61 7.59Q15.43 7.41 14.98 7.41L14.98 7.41L14.39 7.41Q13.94 7.41 13.76 7.59Q13.58 7.77 13.58 8.22L13.58 8.22L13.58 8.89Q13.58 9.04 13.73 9.04ZM24.14 13.02L24.14 13.02L21.04 13.02Q19.94 13.02 19.33 12.43Q18.73 11.84 18.73 10.74L18.73 10.74L18.73 8.16Q18.73 7.06 19.33 6.47Q19.94 5.88 21.04 5.88L21.04 5.88L22.15 5.88Q23.25 5.88 23.86 6.47Q24.46 7.06 24.46 8.16L24.46 8.16L24.46 9.94Q24.46 10.23 24.16 10.23L24.16 10.23L20.65 10.23Q20.48 10.23 20.48 10.39L20.48 10.39L20.48 10.70Q20.48 11.13 20.67 11.32Q20.86 11.51 21.31 11.51L21.31 11.51L24.14 11.51Q24.43 11.51 24.43 11.82L24.43 11.82L24.43 12.74Q24.43 12.89 24.37 12.96Q24.30 13.02 24.14 13.02ZM20.65 9.04L20.65 9.04L22.55 9.04Q22.71 9.04 22.71 8.89L22.71 8.89L22.71 8.22Q22.71 7.77 22.53 7.59Q22.34 7.41 21.90 7.41L21.90 7.41L21.31 7.41Q20.86 7.41 20.68 7.59Q20.50 7.77 20.50 8.22L20.50 8.22L20.50 8.89Q20.50 9.04 20.65 9.04ZM32.12 13.02L32.12 13.02L30.16 13.02Q29.85 13.02 29.81 12.73L29.81 12.73L28.31 4.31Q28.27 4.02 28.60 4.02L28.60 4.02L30.06 4.02Q30.38 4.02 30.39 4.31L30.39 4.31L31.21 11.21L31.30 11.21L32.65 4.27Q32.69 4.02 32.94 4.02L32.94 4.02L34.51 4.02Q34.78 4.02 34.82 4.26L34.82 4.26L36.19 11.21L36.30 11.21L37.10 4.33Q37.11 4.02 37.44 4.02L37.44 4.02L38.89 4.02Q39.23 4.02 39.19 4.33L39.19 4.33L37.67 12.73Q37.63 13.02 37.35 13.02L37.35 13.02L35.38 13.02Q35.08 13.02 35.04 12.73L35.04 12.73L33.78 6.16L33.73 6.16L32.45 12.73Q32.40 13.02 32.12 13.02ZM42.67 13.02L42.67 13.02L42.34 13.02Q41.23 13.02 40.63 12.43Q40.03 11.84 40.03 10.74L40.03 10.74L40.03 8.16Q40.03 7.06 40.63 6.47Q41.23 5.88 42.34 5.88L42.34 5.88L45.57 5.88Q45.88 5.88 45.88 6.17L45.88 6.17L45.88 12.73Q45.88 13.02 45.57 13.02L45.57 13.02L44.39 13.02Q44.10 13.02 44.10 12.73L44.10 12.73L44.10 12.26L44.04 12.26Q43.89 12.64 43.50 12.83Q43.11 13.02 42.67 13.02ZM44.10 10.42L44.10 10.42L44.10 7.57Q44.10 7.42 43.93 7.42L43.93 7.42L42.62 7.42Q42.17 7.42 41.99 7.61Q41.80 7.80 41.80 8.25L41.80 8.25L41.80 10.65Q41.80 11.10 41.99 11.29Q42.17 11.48 42.62 11.48L42.62 11.48L43.13 11.48Q44.10 11.48 44.10 10.42ZM47.57 7.42L47.57 7.42L47.01 7.42Q46.84 7.42 46.78 7.36Q46.72 7.31 46.72 7.14L46.72 7.14L46.72 6.17Q46.72 5.88 47.01 5.88L47.01 5.88L47.57 5.88Q47.73 5.88 47.73 5.73L47.73 5.73L47.73 4.40Q47.73 4.10 48.03 4.10L48.03 4.10L49.21 4.10Q49.50 4.10 49.50 4.40L49.50 4.40L49.50 5.73Q49.50 5.88 49.67 5.88L49.67 5.88L50.76 5.88Q51.06 5.88 51.06 6.17L51.06 6.17L51.06 7.14Q51.06 7.29 51.00 7.36Q50.93 7.42 50.76 7.42L50.76 7.42L49.67 7.42Q49.50 7.42 49.50 7.57L49.50 7.57L49.50 10.67Q49.50 11.10 49.70 11.29Q49.90 11.48 50.34 11.48L50.34 11.48L50.90 11.48Q51.20 11.48 51.20 11.77L51.20 11.77L51.20 12.74Q51.20 12.89 51.14 12.96Q51.07 13.02 50.90 13.02L50.90 13.02L50.05 13.02Q48.94 13.02 48.34 12.43Q47.73 11.84 47.73 10.75L47.73 10.75L47.73 7.57Q47.73 7.42 47.57 7.42ZM57.62 13.02L57.62 13.02L54.53 13.02Q53.42 13.02 52.82 12.43Q52.22 11.84 52.22 10.74L52.22 10.74L52.22 8.16Q52.22 7.06 52.82 6.47Q53.42 5.88 54.53 5.88L54.53 5.88L55.64 5.88Q56.74 5.88 57.34 6.47Q57.95 7.06 57.95 8.16L57.95 8.16L57.95 9.94Q57.95 10.23 57.65 10.23L57.65 10.23L54.14 10.23Q53.97 10.23 53.97 10.39L53.97 10.39L53.97 10.70Q53.97 11.13 54.16 11.32Q54.35 11.51 54.80 11.51L54.80 11.51L57.62 11.51Q57.92 11.51 57.92 11.82L57.92 11.82L57.92 12.74Q57.92 12.89 57.86 12.96Q57.79 13.02 57.62 13.02ZM54.14 9.04L54.14 9.04L56.04 9.04Q56.20 9.04 56.20 8.89L56.20 8.89L56.20 8.22Q56.20 7.77 56.01 7.59Q55.83 7.41 55.38 7.41L55.38 7.41L54.80 7.41Q54.35 7.41 54.17 7.59Q53.98 7.77 53.98 8.22L53.98 8.22L53.98 8.89Q53.98 9.04 54.14 9.04ZM60.76 13.02L60.76 13.02L59.57 13.02Q59.28 13.02 59.28 12.73L59.28 12.73L59.28 6.17Q59.28 5.88 59.57 5.88L59.57 5.88L60.76 5.88Q61.05 5.88 61.05 6.17L61.05 6.17L61.05 6.65L61.11 6.65Q61.26 6.27 61.66 6.08Q62.05 5.88 62.48 5.88L62.48 5.88L62.99 5.88Q63.27 5.88 63.27 6.17L63.27 6.17L63.27 7.14Q63.27 7.31 63.20 7.37Q63.14 7.43 62.99 7.42L62.99 7.42L62.02 7.42Q61.05 7.42 61.05 8.51L61.05 8.51L61.05 12.73Q61.05 13.02 60.76 13.02ZM67.16 10.72L67.16 10.72L67.16 10.44Q67.16 10.15 67.45 10.15L67.45 10.15L68.64 10.15Q68.94 10.15 68.94 10.44L68.94 10.44L68.94 10.56Q68.94 11.09 69.15 11.28Q69.36 11.48 69.92 11.48L69.92 11.48L70.57 11.48Q71.12 11.48 71.34 11.27Q71.55 11.06 71.55 10.49L71.55 10.49L71.55 10.32Q71.55 9.91 71.23 9.70Q70.90 9.48 70.41 9.44Q69.92 9.39 69.35 9.27Q68.78 9.16 68.29 8.97Q67.80 8.78 67.47 8.22Q67.14 7.67 67.14 6.80L67.14 6.80L67.14 6.31Q67.14 5.22 67.76 4.62Q68.38 4.02 69.47 4.02L69.47 4.02L70.87 4.02Q71.97 4.02 72.59 4.62Q73.21 5.22 73.21 6.31L73.21 6.31L73.21 6.58Q73.21 6.87 72.91 6.87L72.91 6.87L71.72 6.87Q71.43 6.87 71.43 6.58L71.43 6.58L71.43 6.50Q71.43 5.95 71.22 5.75Q71.01 5.56 70.45 5.56L70.45 5.56L69.90 5.56Q69.33 5.56 69.13 5.77Q68.92 5.99 68.92 6.62L68.92 6.62L68.92 6.89Q68.92 7.55 70.07 7.64L70.07 7.64Q71.26 7.74 72.18 8.12L72.18 8.12Q72.67 8.33 73.00 8.87Q73.33 9.41 73.33 10.25L73.33 10.25L73.33 10.72Q73.33 11.82 72.72 12.42Q72.10 13.02 71.01 13.02L71.01 13.02L69.48 13.02Q68.39 13.02 67.77 12.42Q67.16 11.82 67.16 10.72ZM74.86 4.68L74.86 4.68L74.86 3.46Q74.86 3.18 75.14 3.18L75.14 3.18L76.36 3.18Q76.64 3.18 76.64 3.44L76.64 3.44L76.64 4.68Q76.64 4.96 76.36 4.96L76.36 4.96L75.14 4.96Q74.86 4.96 74.86 4.68ZM74.86 12.73L74.86 12.73L74.86 6.17Q74.86 5.88 75.14 5.88L75.14 5.88L76.34 5.88Q76.64 5.88 76.64 6.17L76.64 6.17L76.64 12.73Q76.64 12.91 76.57 12.96Q76.51 13.02 76.36 13.02L76.36 13.02L75.15 13.02Q74.86 13.02 74.86 12.73ZM78.40 7.42L78.40 7.42L77.84 7.42Q77.67 7.42 77.61 7.36Q77.55 7.31 77.55 7.14L77.55 7.14L77.55 6.17Q77.55 5.88 77.84 5.88L77.84 5.88L78.40 5.88Q78.55 5.88 78.55 5.73L78.55 5.73L78.55 4.40Q78.55 4.10 78.86 4.10L78.86 4.10L80.04 4.10Q80.33 4.10 80.33 4.40L80.33 4.40L80.33 5.73Q80.33 5.88 80.50 5.88L80.50 5.88L81.59 5.88Q81.89 5.88 81.89 6.17L81.89 6.17L81.89 7.14Q81.89 7.29 81.82 7.36Q81.76 7.42 81.59 7.42L81.59 7.42L80.50 7.42Q80.33 7.42 80.33 7.57L80.33 7.57L80.33 10.67Q80.33 11.10 80.53 11.29Q80.72 11.48 81.17 11.48L81.17 11.48L81.73 11.48Q82.03 11.48 82.03 11.77L82.03 11.77L82.03 12.74Q82.03 12.89 81.96 12.96Q81.90 13.02 81.73 13.02L81.73 13.02L80.88 13.02Q79.77 13.02 79.16 12.43Q78.55 11.84 78.55 10.75L78.55 10.75L78.55 7.57Q78.55 7.42 78.40 7.42ZM88.45 13.02L88.45 13.02L85.36 13.02Q84.25 13.02 83.65 12.43Q83.05 11.84 83.05 10.74L83.05 10.74L83.05 8.16Q83.05 7.06 83.65 6.47Q84.25 5.88 85.36 5.88L85.36 5.88L86.46 5.88Q87.57 5.88 88.17 6.47Q88.77 7.06 88.77 8.16L88.77 8.16L88.77 9.94Q88.77 10.23 88.48 10.23L88.48 10.23L84.97 10.23Q84.80 10.23 84.80 10.39L84.80 10.39L84.80 10.70Q84.80 11.13 84.99 11.32Q85.18 11.51 85.62 11.51L85.62 11.51L88.45 11.51Q88.75 11.51 88.75 11.82L88.75 11.82L88.75 12.74Q88.75 12.89 88.68 12.96Q88.62 13.02 88.45 13.02ZM84.97 9.04L84.97 9.04L86.87 9.04Q87.02 9.04 87.02 8.89L87.02 8.89L87.02 8.22Q87.02 7.77 86.84 7.59Q86.66 7.41 86.21 7.41L86.21 7.41L85.62 7.41Q85.18 7.41 84.99 7.59Q84.81 7.77 84.81 8.22L84.81 8.22L84.81 8.89Q84.81 9.04 84.97 9.04Z"></path></g><defs data-v-fde0c5aa=""><linearGradient data-v-fde0c5aa="" gradientTransform="rotate(25)" id="f2ad531c-18b2-42df-b37f-a1e013f2e058" x1="0%" y1="0%" x2="100%" y2="0%"><stop data-v-fde0c5aa="" offset="0%" stop-color="#51A4FB" stop-opacity="1"></stop><stop data-v-fde0c5aa="" offset="100%" stop-color="#51A4FB" stop-opacity="1"></stop></linearGradient></defs><g data-v-fde0c5aa="" id="0bb254b4-9967-4ecc-aac9-f3896782e5fa" stroke="none" fill="url(#f2ad531c-18b2-42df-b37f-a1e013f2e058)" transform="matrix(0.9474405474974511,0,0,0.9474405474974511,38.10535608680567,134.8409512400408)"><path d="M25.899 3.882c-5.469-5.176-14.333-5.176-19.797 0C.633 9.058.633 17.452 6.098 22.629L16 32l9.899-9.371c5.469-5.177 5.469-13.571 0-18.747zm-.898 11.117c-.555 0-1-.445-1-1a8 8 0 00-8-8 1 1 0 110-2c5.524 0 10 4.477 10 10a1 1 0 01-1 1z"></path></g><!----></svg>