<svg xmlns="http://www.w3.org/2000/svg" viewBox="0 0 360 60" role="img" aria-labelledby="fws-title">
  <title id="fws-title">FreeWaterSite</title>
  <defs>
    <linearGradient id="pinGradient" x1="6" y1="2" x2="54" y2="58" gradientUnits="userSpaceOnUse">
      <stop stop-color="#58AEFF"/>
      <stop offset="1" stop-color="#1877D7"/>
    </linearGradient>
  </defs>
  <!-- Pin icon centred vertically in 60px height -->
  <path fill="url(#pinGradient)" d="M30 2C16.2 2 5 13.1 5 26.8c0 18.3 22.8 35.3 23.8 36a2.8 2.8 0 0 0 3.4 0C33.2 62.1 55 45.1 55 26.8 55 13.1 43.8 2 30 2Z"/>
  <path fill="#fff" d="M30 13.5c-7.4 0-13.4 6-13.4 13.3S22.6 40.1 30 40.1s13.4-6 13.4-13.3S37.4 13.5 30 13.5Zm0 21.4a8.1 8.1 0 1 1 0-16.2 8.1 8.1 0 0 1 0 16.2Z" opacity=".94"/>
  <path fill="#fff" d="M32.6 21.2a1.8 1.8 0 0 1 2.3-1 7.3 7.3 0 0 1 4.2 6.6 1.8 1.8 0 1 1-3.5 0c0-1.6-.9-3-2.1-3.4a1.8 1.8 0 0 1-.9-2.2Z" opacity=".94"/>
  <!-- Wordmark -->
  <text x="70" y="39" fill="#15243A" font-family="Inter, system-ui, -apple-system, BlinkMacSystemFont, 'Segoe UI', sans-serif" font-size="26" font-weight="800" letter-spacing="-0.3">FreeWaterSite</text>
</svg>
