<svg xmlns="http://www.w3.org/2000/svg" width="72" height="80" viewBox="0 0 72 80" role="img" aria-label="FreeWaterSite pin">
  <defs>
    <linearGradient id="pinGradient" x1="11" y1="7" x2="59" y2="69" gradientUnits="userSpaceOnUse">
      <stop stop-color="#58AEFF"/>
      <stop offset="1" stop-color="#1877D7"/>
    </linearGradient>
  </defs>
  <path fill="url(#pinGradient)" d="M36 6c-15.5 0-28 12.4-28 27.8 0 19.9 25.1 38.5 26.2 39.3a3 3 0 0 0 3.6 0C38.9 72.3 64 53.7 64 33.8 64 18.4 51.5 6 36 6Z"/>
  <path fill="#fff" d="M36 18.5c-8.4 0-15.2 6.8-15.2 15.2S27.6 49 36 49s15.2-6.8 15.2-15.3c0-8.4-6.8-15.2-15.2-15.2Zm0 24.4a9.2 9.2 0 1 1 0-18.4 9.2 9.2 0 0 1 0 18.4Z" opacity=".94"/>
  <path fill="#fff" d="M39 27.5a2 2 0 0 1 2.6-1.1 8.3 8.3 0 0 1 4.8 7.5 2 2 0 1 1-4 0c0-1.8-1.1-3.4-2.4-3.9a2 2 0 0 1-1-2.5Z" opacity=".94"/>
</svg>
