<svg xmlns="http://www.w3.org/2000/svg" viewBox="0 0 44 54" width="44" height="54" role="img" aria-label="Water location marker">
  <defs>
    <filter id="shadow" x="-30%" y="-20%" width="160%" height="160%">
      <feDropShadow dx="0" dy="3" stdDeviation="2.5" flood-color="#12314E" flood-opacity=".28"/>
    </filter>
    <linearGradient id="markerBlue" x1="8" y1="4" x2="36" y2="48" gradientUnits="userSpaceOnUse">
      <stop stop-color="#61B7FF"/>
      <stop offset="1" stop-color="#1978D7"/>
    </linearGradient>
  </defs>
  <path filter="url(#shadow)" fill="url(#markerBlue)" d="M22 2C10.9 2 2 10.7 2 21.5 2 35.4 19 51.1 20.1 52a3 3 0 0 0 3.8 0C25 51.1 42 35.4 42 21.5 42 10.7 33.1 2 22 2Z"/>
  <path fill="#fff" d="M22 13c-5.4 0-9.8 4.4-9.8 9.8s4.4 9.8 9.8 9.8 9.8-4.4 9.8-9.8S27.4 13 22 13Zm0 15.2a5.4 5.4 0 1 1 0-10.8 5.4 5.4 0 0 1 0 10.8Z" opacity=".95"/>
  <path fill="#fff" d="M24.1 18.4a1.5 1.5 0 0 1 2-.8 6.2 6.2 0 0 1 3.6 5.6 1.5 1.5 0 0 1-3 0c0-1.1-.7-2.2-1.8-2.8a1.5 1.5 0 0 1-.8-2Z" opacity=".95"/>
</svg>
